<?xml version="1.0" encoding="iso-8859-1"?>
<!-- Generator: Adobe Illustrator 19.0.0, SVG Export Plug-In . SVG Version: 6.00 Build 0)  -->
<svg version="1.1" id="Capa_1" xmlns="http://www.w3.org/2000/svg" xmlns:xlink="http://www.w3.org/1999/xlink" x="0px" y="0px"
	 viewBox="0 0 512 512" style="enable-background:new 0 0 512 512;" xml:space="preserve">
<g>
	<g>
		<path d="M374.214,0H137.785C117.502,0,101,15.701,101,35v442c0,19.299,16.502,35,36.785,35h236.429
			C394.498,512,411,496.299,411,477V35C411,15.701,394.498,0,374.214,0z M189.056,20L189.056,20H321.24v6.5
			c0,7.991-8.178,15-17.5,15h-97.184c-9.322,0-17.5-7.009-17.5-15V20z M391,477c0,8.271-7.53,15-16.786,15H137.785
			C128.53,492,121,485.271,121,477V35c0-8.271,7.53-15,16.785-15h31.271v6.5c0,18.972,17.173,35,37.5,35h97.184
			c20.327,0,37.5-16.028,37.5-35V20h32.974C383.47,20,391,26.729,391,35V477z"/>
	</g>
</g>
<g>
	<g>
		<path d="M151.997,167c-5.51,0-10,4.49-10,10s4.49,10,10,10c5.521,0,10-4.49,10-10S157.518,167,151.997,167z"/>
	</g>
</g>
<g>
	<g>
		<path d="M231.997,167h-40c-5.51,0-10,4.49-10,10s4.49,10,10,10h40c5.521,0,10-4.49,10-10S237.518,167,231.997,167z"/>
	</g>
</g>
<g>
	<g>
		<path d="M232,209h-79.667c-5.522,0-10,4.477-10,10s4.478,10,10,10H232c5.522,0,10-4.477,10-10S237.522,209,232,209z"/>
	</g>
</g>
<g>
	<g>
		<path d="M359.666,83h-92.34c-5.522,0-10,4.477-10,10s4.478,10,10,10h92.34c5.522,0,10-4.477,10-10S365.188,83,359.666,83z"/>
	</g>
</g>
<g>
	<g>
		<path d="M317.327,125h-50c-5.52,0-10,4.49-10,10s4.481,10,10,10h50c5.51,0,10-4.49,10-10S322.837,125,317.327,125z"/>
	</g>
</g>
<g>
	<g>
		<path d="M357.327,125c-5.52,0-10,4.49-10,10s4.48,10,10,10c5.51,0,10-4.49,10-10S362.837,125,357.327,125z"/>
	</g>
</g>
<g>
	<g>
		<path d="M359.666,251H265c-5.522,0-10,4.477-10,10s4.478,10,10,10h94.666c5.522,0,10-4.477,10-10S365.188,251,359.666,251z"/>
	</g>
</g>
<g>
	<g>
		<path d="M314.997,293h-50c-5.51,0-10,4.49-10,10s4.49,10,10,10h50c5.51,0,10-4.49,10-10S320.507,293,314.997,293z"/>
	</g>
</g>
<g>
	<g>
		<path d="M354.997,293c-5.51,0-10,4.49-10,10s4.49,10,10,10s10-4.49,10-10S360.507,293,354.997,293z"/>
	</g>
</g>
<g>
	<g>
		<path d="M359.666,335h-49.08c-5.522,0-10,4.477-10,10s4.478,10,10,10h49.08c5.522,0,10-4.477,10-10S365.188,335,359.666,335z"/>
	</g>
</g>
<g>
	<g>
		<path d="M347.666,415.165c-9.492,0-15.239,5.475-19.436,9.473c-3.515,3.349-4.946,4.521-7.203,4.521c-1.075,0-1.163,0-3.493-2.594
			c-3.448-3.839-9.221-10.265-21.444-10.265c-2.572,0-5.016,0.368-7.323,1.046C283.314,401.734,268.448,390.5,251,390.5
			c-17.909,0-33.107,11.832-38.189,28.089c-2.806-1.198-5.963-1.951-9.483-1.951c-9.45,0-14.985,5.377-18.648,8.936
			c-3.173,3.083-3.955,3.585-5.574,3.585c-0.843,0-0.875,0-2.941-2.239c-3.664-3.972-9.797-10.619-23.831-10.619
			c-5.522,0-10,4.477-10,10s4.478,10,10,10c5.274,0,6.403,1.224,9.132,4.181c2.994,3.245,8.006,8.677,17.641,8.677
			c9.998,0,15.722-5.56,19.51-9.239c2.873-2.791,3.577-3.282,4.713-3.282c3.388,0,7.127,5.212,8.281,7.525
			c0.814,1.696,2.053,3.045,3.519,4.009c6.535,13.215,20.156,22.328,35.87,22.328c16.491,0,30.681-10.033,36.793-24.315
			c0.763-0.952,1.41-2.097,1.882-3.465c2.213-6.419,5.266-6.419,6.415-6.419c3.306,0,3.996,0.769,6.565,3.629
			c3.101,3.452,8.29,9.229,18.372,9.229c10.461,0,16.803-6.042,21-10.041c3.163-3.015,4.354-3.953,5.639-3.953
			c5.522,0,10-4.477,10-10S353.188,415.165,347.666,415.165z M251,450.5c-11.028,0-20-8.972-20-20s8.972-20,20-20s20,8.972,20,20
			S262.028,450.5,251,450.5z"/>
	</g>
</g>
<g>
</g>
<g>
</g>
<g>
</g>
<g>
</g>
<g>
</g>
<g>
</g>
<g>
</g>
<g>
</g>
<g>
</g>
<g>
</g>
<g>
</g>
<g>
</g>
<g>
</g>
<g>
</g>
<g>
</g>
</svg>
